<?xml version="1.0" encoding="UTF-8"?>
<svg id="a" data-name="Layer 1" xmlns="http://www.w3.org/2000/svg" xmlns:xlink="http://www.w3.org/1999/xlink" viewBox="0 0 200 200">
  <defs>
    <style>
      .c {
        fill: url(#b);
        stroke-width: 0px;
      }
    </style>
    <linearGradient id="b" x1="37.73" y1="99.62" x2="162.57" y2="99.62" gradientUnits="userSpaceOnUse">
      <stop offset="0" stop-color="#5433ff"/>
      <stop offset=".5" stop-color="#20bdff"/>
      <stop offset="1" stop-color="#a5fecb"/>
    </linearGradient>
  </defs>
  <path class="c" d="m68.33,173.61l-.58,1.01h64.8l-.58-1.01,29.3-40.87h1.31L100.15,24.62l-62.42,108.12h1.31l29.3,40.87Zm-26.66-40.87h50.26l-22.42,38.84-27.84-38.84Zm29.79,39.74l22.94-39.74h11.48l22.94,39.74h-57.37Zm7.05-84.2c0-11.58,9.42-21,21-21s21,9.42,21,21c0,.94-.07,1.87-.19,2.79-2.11-1.6-4.49-3.14-7.07-4.45-.83-6.85-6.67-12.19-13.74-12.19s-12.92,5.33-13.74,12.19c-2.58,1.3-4.96,2.85-7.07,4.45-.12-.91-.19-1.84-.19-2.79Zm32.7,0c0,6.45-5.25,11.71-11.71,11.71s-11.71-5.25-11.71-11.71c0-.08.01-.16.01-.24,3.6-1.69,7.55-2.83,11.69-2.83s8.09,1.14,11.69,2.83c0,.08.01.16.01.24Zm-11.71-5.21c-4.03,0-7.85.97-11.36,2.45,1.25-5.12,5.86-8.94,11.36-8.94s10.12,3.82,11.36,8.94c-3.51-1.48-7.34-2.45-11.36-2.45Zm-13.81,6.05c.43,7.25,6.45,13.02,13.81,13.02s13.37-5.77,13.81-13.01c2.39,1.31,4.59,2.83,6.54,4.36-2.32,9.07-10.56,15.8-20.35,15.8s-18.03-6.73-20.35-15.8c1.95-1.54,4.15-3.05,6.54-4.36Zm13.81,22.31c10.44,0,19.28-6.95,22.15-16.46,3.4,2.91,5.83,5.65,6.84,6.87-2.64,3.15-14.74,16.62-29,16.62s-26.36-13.47-29-16.62c1.02-1.21,3.44-3.96,6.84-6.87,2.87,9.51,11.72,16.46,22.16,16.46Zm.64,11.38l4.5,7.8h-9.01l4.5-7.8Zm30.64,48.78l-22.42-38.84h50.26l-27.84,38.84ZM100.15,28.91l58.71,101.68h-51.73l-5.82-10.07c16.25-1.15,28.88-17.33,29.43-18.04l.5-.65-.5-.65c-.27-.35-3.43-4.4-8.5-8.59.26-1.4.41-2.84.41-4.31,0-12.76-10.38-23.14-23.14-23.14s-23.14,10.38-23.14,23.14c0,1.47.14,2.91.41,4.31-5.06,4.18-8.23,8.24-8.5,8.59l-.5.65.5.65c.56.73,13.83,17.73,30.68,18.09l-5.79,10.02h-51.73L100.15,28.91Z"/>
</svg>